<svg width="189" height="86" viewBox="0 0 189 86" fill="none" xmlns="http://www.w3.org/2000/svg">
<g clip-path="url(#clip0_0_181)">
<path d="M188.23 0H0V85.19H188.23V0Z" fill="#ED1B24"/>
<path d="M162.55 12.0901H173.08V62.0201H182.01V74.6101H162.55V12.0901Z" fill="white"/>
<path d="M7.74023 74.3801V12.0901H21.9402L26.9802 38.2001L32.7002 12.0901H46.4402V68.2001L55.3702 12.0901H69.3402L78.0402 68.2001V12.3201H96.5902C96.5902 12.3201 103 13.4601 106.21 22.4001L104.84 12.0901H116.06L121.33 44.3801L126.83 12.3201H158.43V24.0001H149.04V36.8201H157.97V49.8701H149.27V61.7801H158.43V74.3801H138.05V14.3801L127.51 74.3801H114.92L108.28 34.5301C108.28 34.5301 107.14 45.5201 100.95 50.5601L108.97 74.3801H97.9802L90.1902 53.5401V74.3801H67.9802L66.8402 68.4301H58.3702L56.5402 74.3801H35.4702V51.4801L29.9702 74.3801H24.2502L19.2102 51.7101V74.1501L7.76023 74.3801H7.74023ZM65.6802 56.2901L62.4702 37.2801L59.7202 56.2901H65.6702H65.6802ZM89.9502 41.8601C97.5102 41.4001 96.8202 32.0101 96.8202 32.0101C95.6802 22.8501 89.9502 23.3101 89.9502 23.3101V41.8601Z" fill="white"/>
</g>
<defs>
<clipPath id="clip0_0_181">
<rect width="188.23" height="85.19" fill="white"/>
</clipPath>
</defs>
</svg>
